# xmcd
#
# Track frame offsets:
#	150
#	52462
#	93015
#	152089
#	199870
#	229186
#	276414
#	316097
#
# Disc length: 4655 seconds
#
# Revision: 1
# Processed by: cddbd v1.5.2PL0 Copyright (c) Steve Scherf et al.
# Submitted via: audiograbber 1.83.01
#
DISCID=6c122d08
DTITLE=Grateful Dead - 78-07-03A St Paul Civic Centre Arena, St Paul MN
DYEAR=1900
DGENRE=
TTITLE0=Scarlet Begonias
TTITLE1=Fire On The Mountain
TTITLE2=Dancing In The Streets
TTITLE3=Drums
TTITLE4=Not Fade Away
TTITLE5=Stella Blue
TTITLE6=Sugar Magnolia
TTITLE7=Werewolves Of London
EXTD=
EXTT0=
EXTT1=
EXTT2=
EXTT3=
EXTT4=
EXTT5=
EXTT6=
EXTT7=
PLAYORDER=
